HIERARCHY
ROOT mixamorig:Hips
{
	OFFSET 0.000000 103.991501 0.000000
	CHANNELS 6 Xposition Yposition Zposition Xrotation Yrotation Zrotation
	JOINT mixamorig:Spine
	{
		OFFSET 0.000000 10.181602 0.131500
		CHANNELS 6 Xposition Yposition Zposition Xrotation Yrotation Zrotation
		JOINT mixamorig:Spine1
		{
			OFFSET 0.000000 10.083504 -1.000800
			CHANNELS 6 Xposition Yposition Zposition Xrotation Yrotation Zrotation
			JOINT mixamorig:Spine2
			{
				OFFSET 0.000000 9.100006 -1.373400
				CHANNELS 6 Xposition Yposition Zposition Xrotation Yrotation Zrotation
				JOINT mixamorig:Neck
				{
					OFFSET 0.000000 16.671707 -2.516200
					CHANNELS 6 Xposition Yposition Zposition Xrotation Yrotation Zrotation
					JOINT mixamorig:Head
					{
						OFFSET 0.000000 9.617905 1.685000
						CHANNELS 6 Xposition Yposition Zposition Xrotation Yrotation Zrotation
						JOINT mixamorig:HeadTop_End
						{
							OFFSET 0.000000 17.815201 2.585000
							CHANNELS 6 Xposition Yposition Zposition Xrotation Yrotation Zrotation
							End Site
							{
								OFFSET 0.000000 13.794495 0.000000
							}
						}
						JOINT mixamorig:LeftEye
						{
							OFFSET 3.067600 6.409500 9.283600
							CHANNELS 6 Xposition Yposition Zposition Xrotation Yrotation Zrotation
							End Site
							{
								OFFSET 0.000000 13.794495 0.000000
							}
						}
						JOINT mixamorig:RightEye
						{
							OFFSET -3.067600 6.409500 9.283500
							CHANNELS 6 Xposition Yposition Zposition Xrotation Yrotation Zrotation
							End Site
							{
								OFFSET 0.000000 13.794495 0.000000
							}
						}
					}
				}
				JOINT mixamorig:LeftShoulder
				{
					OFFSET 4.570400 10.945999 -2.628000
					CHANNELS 6 Xposition Yposition Zposition Xrotation Yrotation Zrotation
					JOINT mixamorig:LeftArm
					{
						OFFSET 10.592400 -0.524597 -2.232100
						CHANNELS 6 Xposition Yposition Zposition Xrotation Yrotation Zrotation
						JOINT mixamorig:LeftForeArm
						{
							OFFSET 27.841499 0.000000 0.000000
							CHANNELS 6 Xposition Yposition Zposition Xrotation Yrotation Zrotation
							JOINT mixamorig:LeftHand
							{
								OFFSET 28.328800 0.000000 0.000000
								CHANNELS 6 Xposition Yposition Zposition Xrotation Yrotation Zrotation
								JOINT mixamorig:LeftHandThumb1
								{
									OFFSET 2.466103 -1.576218 2.681689
									CHANNELS 6 Xposition Yposition Zposition Xrotation Yrotation Zrotation
									JOINT mixamorig:LeftHandThumb2
									{
										OFFSET 3.229782 -1.864716 1.864716
										CHANNELS 6 Xposition Yposition Zposition Xrotation Yrotation Zrotation
										JOINT mixamorig:LeftHandThumb3
										{
											OFFSET 2.652611 -1.531494 1.531488
											CHANNELS 6 Xposition Yposition Zposition Xrotation Yrotation Zrotation
											JOINT mixamorig:LeftHandThumb4
											{
												OFFSET 1.954605 -1.128494 1.128493
												CHANNELS 6 Xposition Yposition Zposition Xrotation Yrotation Zrotation
												End Site
												{
													OFFSET -0.000404 2.523392 0.000683
												}
											}
										}
									}
								}
								JOINT mixamorig:LeftHandIndex1
								{
									OFFSET 9.109299 -0.518112 2.259867
									CHANNELS 6 Xposition Yposition Zposition Xrotation Yrotation Zrotation
									JOINT mixamorig:LeftHandIndex2
									{
										OFFSET 3.676399 0.000000 0.000000
										CHANNELS 6 Xposition Yposition Zposition Xrotation Yrotation Zrotation
										JOINT mixamorig:LeftHandIndex3
										{
											OFFSET 2.883102 0.000000 0.000000
											CHANNELS 6 Xposition Yposition Zposition Xrotation Yrotation Zrotation
											JOINT mixamorig:LeftHandIndex4
											{
												OFFSET 2.392700 0.000000 0.000000
												CHANNELS 6 Xposition Yposition Zposition Xrotation Yrotation Zrotation
												End Site
												{
													OFFSET 0.000000 2.392700 0.001080
												}
											}
										}
									}
								}
								JOINT mixamorig:LeftHandMiddle1
								{
									OFFSET 9.533401 0.000000 0.000000
									CHANNELS 6 Xposition Yposition Zposition Xrotation Yrotation Zrotation
									JOINT mixamorig:LeftHandMiddle2
									{
										OFFSET 3.698196 0.000000 0.000000
										CHANNELS 6 Xposition Yposition Zposition Xrotation Yrotation Zrotation
										JOINT mixamorig:LeftHandMiddle3
										{
											OFFSET 2.950897 0.000000 0.000000
											CHANNELS 6 Xposition Yposition Zposition Xrotation Yrotation Zrotation
											JOINT mixamorig:LeftHandMiddle4
											{
												OFFSET 2.833900 0.000000 0.000000
												CHANNELS 6 Xposition Yposition Zposition Xrotation Yrotation Zrotation
												End Site
												{
													OFFSET 0.000000 2.833893 0.001278
												}
											}
										}
									}
								}
								JOINT mixamorig:LeftHandRing1
								{
									OFFSET 9.104500 -0.043060 -1.865119
									CHANNELS 6 Xposition Yposition Zposition Xrotation Yrotation Zrotation
									JOINT mixamorig:LeftHandRing2
									{
										OFFSET 3.153999 0.000000 0.000000
										CHANNELS 6 Xposition Yposition Zposition Xrotation Yrotation Zrotation
										JOINT mixamorig:LeftHandRing3
										{
											OFFSET 2.937698 0.000000 0.000000
											CHANNELS 6 Xposition Yposition Zposition Xrotation Yrotation Zrotation
											JOINT mixamorig:LeftHandRing4
											{
												OFFSET 2.647499 0.000000 0.000000
												CHANNELS 6 Xposition Yposition Zposition Xrotation Yrotation Zrotation
												End Site
												{
													OFFSET 0.000000 2.647507 0.001195
												}
											}
										}
									}
								}
								JOINT mixamorig:LeftHandPinky1
								{
									OFFSET 8.077797 -0.486984 -3.806321
									CHANNELS 6 Xposition Yposition Zposition Xrotation Yrotation Zrotation
									JOINT mixamorig:LeftHandPinky2
									{
										OFFSET 3.599998 0.000000 0.000000
										CHANNELS 6 Xposition Yposition Zposition Xrotation Yrotation Zrotation
										JOINT mixamorig:LeftHandPinky3
										{
											OFFSET 2.114197 0.000000 0.000000
											CHANNELS 6 Xposition Yposition Zposition Xrotation Yrotation Zrotation
											JOINT mixamorig:LeftHandPinky4
											{
												OFFSET 1.975700 0.000000 0.000000
												CHANNELS 6 Xposition Yposition Zposition Xrotation Yrotation Zrotation
												End Site
												{
													OFFSET 0.000000 1.975693 0.000892
												}
											}
										}
									}
								}
							}
						}
					}
				}
				JOINT mixamorig:RightShoulder
				{
					OFFSET -4.570000 10.946198 -2.628000
					CHANNELS 6 Xposition Yposition Zposition Xrotation Yrotation Zrotation
					JOINT mixamorig:RightArm
					{
						OFFSET -10.592800 -0.524796 -2.232100
						CHANNELS 6 Xposition Yposition Zposition Xrotation Yrotation Zrotation
						JOINT mixamorig:RightForeArm
						{
							OFFSET -27.841499 0.000000 0.000000
							CHANNELS 6 Xposition Yposition Zposition Xrotation Yrotation Zrotation
							JOINT mixamorig:RightHand
							{
								OFFSET -28.328800 0.000000 0.000000
								CHANNELS 6 Xposition Yposition Zposition Xrotation Yrotation Zrotation
								JOINT mixamorig:RightHandPinky1
								{
									OFFSET -8.076698 -0.486725 -3.806227
									CHANNELS 6 Xposition Yposition Zposition Xrotation Yrotation Zrotation
									JOINT mixamorig:RightHandPinky2
									{
										OFFSET -3.599998 0.000000 0.000000
										CHANNELS 6 Xposition Yposition Zposition Xrotation Yrotation Zrotation
										JOINT mixamorig:RightHandPinky3
										{
											OFFSET -2.114197 0.000000 0.000000
											CHANNELS 6 Xposition Yposition Zposition Xrotation Yrotation Zrotation
											JOINT mixamorig:RightHandPinky4
											{
												OFFSET -1.975700 0.000000 0.000000
												CHANNELS 6 Xposition Yposition Zposition Xrotation Yrotation Zrotation
												End Site
												{
													OFFSET 0.000000 1.975693 0.000919
												}
											}
										}
									}
								}
								JOINT mixamorig:RightHandRing1
								{
									OFFSET -9.103600 -0.043030 -1.865120
									CHANNELS 6 Xposition Yposition Zposition Xrotation Yrotation Zrotation
									JOINT mixamorig:RightHandRing2
									{
										OFFSET -3.153999 0.000000 0.000000
										CHANNELS 6 Xposition Yposition Zposition Xrotation Yrotation Zrotation
										JOINT mixamorig:RightHandRing3
										{
											OFFSET -2.937698 0.000000 0.000000
											CHANNELS 6 Xposition Yposition Zposition Xrotation Yrotation Zrotation
											JOINT mixamorig:RightHandRing4
											{
												OFFSET -2.647499 0.000000 0.000000
												CHANNELS 6 Xposition Yposition Zposition Xrotation Yrotation Zrotation
												End Site
												{
													OFFSET 0.000000 2.647507 0.001231
												}
											}
										}
									}
								}
								JOINT mixamorig:RightHandMiddle1
								{
									OFFSET -9.532501 0.000000 0.000000
									CHANNELS 6 Xposition Yposition Zposition Xrotation Yrotation Zrotation
									JOINT mixamorig:RightHandMiddle2
									{
										OFFSET -3.698196 0.000000 0.000000
										CHANNELS 6 Xposition Yposition Zposition Xrotation Yrotation Zrotation
										JOINT mixamorig:RightHandMiddle3
										{
											OFFSET -2.950897 0.000000 0.000000
											CHANNELS 6 Xposition Yposition Zposition Xrotation Yrotation Zrotation
											JOINT mixamorig:RightHandMiddle4
											{
												OFFSET -2.833900 0.000000 0.000000
												CHANNELS 6 Xposition Yposition Zposition Xrotation Yrotation Zrotation
												End Site
												{
													OFFSET 0.000000 2.833893 0.001318
												}
											}
										}
									}
								}
								JOINT mixamorig:RightHandIndex1
								{
									OFFSET -9.108299 -0.517853 2.259859
									CHANNELS 6 Xposition Yposition Zposition Xrotation Yrotation Zrotation
									JOINT mixamorig:RightHandIndex2
									{
										OFFSET -3.676399 0.000000 0.000000
										CHANNELS 6 Xposition Yposition Zposition Xrotation Yrotation Zrotation
										JOINT mixamorig:RightHandIndex3
										{
											OFFSET -2.883102 0.000000 0.000000
											CHANNELS 6 Xposition Yposition Zposition Xrotation Yrotation Zrotation
											JOINT mixamorig:RightHandIndex4
											{
												OFFSET -2.392700 0.000000 0.000000
												CHANNELS 6 Xposition Yposition Zposition Xrotation Yrotation Zrotation
												End Site
												{
													OFFSET 0.000000 2.392700 0.001113
												}
											}
										}
									}
								}
								JOINT mixamorig:RightHandThumb1
								{
									OFFSET -2.464798 -1.573944 2.681868
									CHANNELS 6 Xposition Yposition Zposition Xrotation Yrotation Zrotation
									JOINT mixamorig:RightHandThumb2
									{
										OFFSET -3.229782 -1.864716 1.864716
										CHANNELS 6 Xposition Yposition Zposition Xrotation Yrotation Zrotation
										JOINT mixamorig:RightHandThumb3
										{
											OFFSET -2.652542 -1.531448 1.531448
											CHANNELS 6 Xposition Yposition Zposition Xrotation Yrotation Zrotation
											JOINT mixamorig:RightHandThumb4
											{
												OFFSET -1.954605 -1.128494 1.128493
												CHANNELS 6 Xposition Yposition Zposition Xrotation Yrotation Zrotation
												End Site
												{
													OFFSET 0.000412 2.523392 0.000704
												}
											}
										}
									}
								}
							}
						}
					}
				}
			}
		}
	}
	JOINT mixamorig:LeftUpLeg
	{
		OFFSET 8.207800 -6.751701 -1.599600
		CHANNELS 6 Xposition Yposition Zposition Xrotation Yrotation Zrotation
		JOINT mixamorig:LeftLeg
		{
			OFFSET 0.000000 -44.370499 0.284600
			CHANNELS 6 Xposition Yposition Zposition Xrotation Yrotation Zrotation
			JOINT mixamorig:LeftFoot
			{
				OFFSET 0.000000 -44.427898 -2.982200
				CHANNELS 6 Xposition Yposition Zposition Xrotation Yrotation Zrotation
				JOINT mixamorig:LeftToeBase
				{
					OFFSET 0.000000 -8.728700 10.710600
					CHANNELS 6 Xposition Yposition Zposition Xrotation Yrotation Zrotation
					JOINT mixamorig:LeftToe_End
					{
						OFFSET 0.000000 -0.000700 9.278099
						CHANNELS 6 Xposition Yposition Zposition Xrotation Yrotation Zrotation
						End Site
						{
							OFFSET 0.000000 9.278100 0.000000
						}
					}
				}
			}
		}
	}
	JOINT mixamorig:RightUpLeg
	{
		OFFSET -8.207800 -6.751701 -1.599600
		CHANNELS 6 Xposition Yposition Zposition Xrotation Yrotation Zrotation
		JOINT mixamorig:RightLeg
		{
			OFFSET 0.000000 -44.370499 0.286200
			CHANNELS 6 Xposition Yposition Zposition Xrotation Yrotation Zrotation
			JOINT mixamorig:RightFoot
			{
				OFFSET 0.000000 -44.427700 -2.983800
				CHANNELS 6 Xposition Yposition Zposition Xrotation Yrotation Zrotation
				JOINT mixamorig:RightToeBase
				{
					OFFSET 0.000000 -8.728700 10.710600
					CHANNELS 6 Xposition Yposition Zposition Xrotation Yrotation Zrotation
					JOINT mixamorig:RightToe_End
					{
						OFFSET 0.000000 -0.000700 9.278100
						CHANNELS 6 Xposition Yposition Zposition Xrotation Yrotation Zrotation
						End Site
						{
							OFFSET 0.000000 9.278100 0.000000
						}
					}
				}
			}
		}
	}
}
MOTION
Frames: 3
Frame Time: 0.016667
-0.371552 142.207947 -0.766133 -5.542936 17.661017 6.758729 -0.000001 10.181595 0.131499 0.156068 -0.760406 -1.003142 -0.000000 10.083509 -1.000799 0.313266 -1.370195 -1.299821 -0.000001 9.099997 -1.373398 0.313265 -1.370199 -1.299821 -0.000000 16.671717 -2.516201 7.714460 -2.164492 0.197470 -0.000001 9.617889 1.685000 8.255374 -11.438073 -2.203084 -0.000000 17.815201 2.585002 -0.000000 0.000000 -0.000000 3.067600 6.409500 9.283606 -0.000000 0.000000 -0.000000 -3.067601 6.409500 9.283504 -0.000000 0.000000 -0.000000 4.570402 10.946014 -2.627999 0.383876 0.241292 -3.338421 10.592402 -0.524561 -2.232100 -1.866035 36.648302 -6.876128 27.841499 0.000036 0.000005 13.392025 -80.410096 13.211498 28.328800 0.000002 0.000002 41.143683 12.543742 28.640592 2.466111 -1.576214 2.681684 -9.327296 5.317540 9.810489 3.229817 -1.864706 1.864716 4.331894 -1.353692 9.862607 2.652611 -1.531510 1.531479 0.000002 0.000000 -0.000000 1.954597 -1.128497 1.128493 0.000000 -0.000000 0.000000 9.109308 -0.518112 2.259859 -6.697126 -2.459056 10.394013 3.676396 -0.000006 -0.000001 0.518800 0.852055 -8.045117 2.883115 -0.000011 0.000008 -0.000004 0.000003 -0.000008 2.392700 0.000014 -0.000006 -0.000001 0.000001 -0.000003 9.533406 0.000008 -0.000007 -0.788166 7.789213 6.144126 3.698193 -0.000003 0.000000 0.007177 -0.486138 -13.943968 2.950906 0.000020 -0.000003 0.000011 -0.000001 0.000009 2.833903 0.000012 0.000001 0.000001 -0.000000 -0.000001 9.104512 -0.043068 -1.865128 0.219873 16.598724 8.448371 3.153982 -0.000007 0.000002 -0.492769 -0.918220 -22.349241 2.937691 0.000020 0.000005 0.000002 0.000001 -0.000000 2.647488 0.000002 0.000006 0.000002 -0.000000 0.000001 8.077802 -0.486968 -3.806326 6.313547 25.496248 -2.313273 3.600012 0.000010 -0.000001 -0.705287 -2.871251 -16.946181 2.114210 -0.000011 -0.000000 -0.000001 -0.000000 -0.000002 1.975701 0.000019 0.000002 0.000001 -0.000000 -0.000000 -4.570000 10.946217 -2.628000 0.570972 2.998517 5.279500 -10.592801 -0.524809 -2.232100 -1.665490 -1.563064 28.844493 -27.841511 0.000002 0.000000 4.001744 59.456530 -3.447925 -28.328793 0.000031 -0.000005 -13.998304 -24.714958 -27.701407 -8.076703 -0.486705 -3.806226 2.026093 -27.178293 -1.280413 -3.599998 -0.000015 -0.000010 -0.246045 1.881855 18.253105 -2.114217 -0.000000 -0.000007 -0.000000 -0.000002 0.000005 -1.975704 -0.000003 -0.000010 -0.000002 0.000001 -0.000002 -9.103595 -0.043034 -1.865113 -1.561231 -16.758363 -9.692848 -3.154001 -0.000007 0.000001 -0.264683 0.407808 23.924964 -2.937696 0.000001 0.000002 -0.000001 -0.000001 -0.000001 -2.647494 -0.000000 -0.000007 -0.000000 -0.000000 0.000001 -9.532502 0.000023 -0.000004 0.041810 -7.435046 -5.272611 -3.698200 -0.000007 -0.000001 -0.133737 0.658996 13.512123 -2.950900 -0.000019 -0.000004 -0.000003 -0.000002 0.000001 -2.833898 -0.000029 -0.000001 0.000001 0.000002 0.000002 -9.108296 -0.517850 2.259854 -5.103962 2.286771 -8.562045 -3.676403 -0.000006 0.000013 0.056182 -0.632367 6.483869 -2.883094 0.000027 0.000004 0.000007 -0.000011 -0.000009 -2.392685 0.000000 -0.000004 0.000000 -0.000001 0.000000 -2.464799 -1.573931 2.681863 -10.328035 -1.313894 -8.957165 -3.229789 -1.864691 1.864719 5.929321 0.659281 -8.093385 -2.652544 -1.531440 1.531436 0.000004 -0.000006 -0.000005 -1.954622 -1.128512 1.128483 -0.000000 0.000002 0.000001 8.207799 -6.751714 -1.599599 -31.203180 10.793230 -1.144311 0.000002 -44.370502 0.284597 36.537031 -0.342645 -1.277376 0.000000 -44.427895 -2.982200 -1.455024 2.409113 0.807453 -0.000000 -8.728712 10.710599 -6.859757 -0.042587 0.024931 -0.000000 -0.000703 9.278099 -0.000000 0.000003 -0.000000 -8.207801 -6.751709 -1.599597 -45.871772 -3.710444 -8.751564 -0.000000 -44.370502 0.286207 62.645163 1.151522 2.163663 -0.000001 -44.427689 -2.983796 11.230971 -15.234387 5.733701 -0.000001 -8.728698 10.710595 0.000169 0.001224 -0.004054 0.000001 -0.000699 9.278098 -0.000000 0.000000 -0.000000 
-0.363426 142.210098 -0.765436 -5.556876 17.667903 6.775820 -0.000001 10.181618 0.131499 0.156338 -0.760771 -1.003951 -0.000001 10.083480 -1.000801 0.313822 -1.370795 -1.299910 -0.000001 9.099988 -1.373400 0.313824 -1.370800 -1.299910 -0.000000 16.671696 -2.516200 7.704189 -2.164965 0.202080 0.000000 9.617882 1.685003 8.226759 -11.437105 -2.204941 0.000001 17.815201 2.585001 -0.000000 0.000000 -0.000000 3.067601 6.409500 9.283606 -0.000000 0.000000 -0.000000 -3.067599 6.409485 9.283504 -0.000000 0.000000 -0.000000 4.570400 10.946000 -2.627999 0.384071 0.239665 -3.340340 10.592402 -0.524581 -2.232102 -1.894656 36.668448 -6.843557 27.841503 0.000009 0.000002 13.473283 -80.467729 13.293917 28.328794 -0.000006 0.000007 41.151459 12.532513 28.606892 2.466115 -1.576199 2.681692 -9.327299 5.317539 9.810487 3.229807 -1.864714 1.864712 4.331903 -1.353688 9.862643 2.652614 -1.531476 1.531482 0.000003 0.000004 0.000002 1.954605 -1.128480 1.128497 0.000001 0.000001 0.000000 9.109308 -0.518091 2.259863 -6.697126 -2.459060 10.394001 3.676387 -0.000022 0.000001 0.518807 0.852069 -8.045128 2.883101 -0.000030 -0.000006 -0.000007 0.000002 -0.000008 2.392688 -0.000021 -0.000007 -0.000002 -0.000000 0.000002 9.533415 0.000029 -0.000007 -0.788184 7.789210 6.144130 3.698196 -0.000003 -0.000008 0.007194 -0.486134 -13.943980 2.950885 0.000003 -0.000003 0.000011 -0.000002 0.000008 2.833882 0.000004 -0.000006 0.000000 -0.000001 -0.000002 9.104513 -0.043051 -1.865126 0.219880 16.598733 8.448364 3.153980 -0.000006 -0.000006 -0.492778 -0.918226 -22.349248 2.937705 -0.000014 0.000001 0.000003 -0.000001 0.000001 2.647483 -0.000016 0.000002 -0.000001 -0.000001 0.000001 8.077797 -0.486987 -3.806318 6.313547 25.496254 -2.313271 3.600008 -0.000022 -0.000001 -0.705294 -2.871249 -16.946169 2.114203 0.000006 -0.000010 0.000001 -0.000000 0.000000 1.975707 0.000021 0.000001 0.000004 -0.000001 0.000000 -4.570001 10.946203 -2.628000 0.571459 3.007101 5.293139 -10.592797 -0.524798 -2.232100 -1.703001 -1.508034 28.862549 -27.841501 0.000033 -0.000004 3.993317 59.394020 -3.438442 -28.328804 0.000004 0.000013 -14.036679 -24.656377 -27.785580 -8.076703 -0.486722 -3.806227 2.026107 -27.178289 -1.280411 -3.599984 0.000020 0.000000 -0.246043 1.881844 18.253110 -2.114197 0.000017 -0.000002 -0.000001 -0.000001 -0.000003 -1.975699 0.000003 -0.000018 0.000001 0.000000 -0.000001 -9.103601 -0.043045 -1.865119 -1.561219 -16.758357 -9.692853 -3.153990 -0.000006 -0.000015 -0.264704 0.407806 23.924976 -2.937681 0.000001 -0.000003 -0.000001 0.000003 -0.000001 -2.647496 -0.000015 0.000005 0.000001 0.000001 -0.000001 -9.532497 0.000002 0.000003 0.041824 -7.435050 -5.272626 -3.698186 -0.000005 -0.000001 -0.133749 0.658998 13.512123 -2.950879 -0.000002 0.000001 -0.000002 -0.000002 0.000002 -2.833879 -0.000006 -0.000001 -0.000002 0.000001 -0.000002 -9.108298 -0.517859 2.259854 -5.103966 2.286767 -8.562051 -3.676407 -0.000026 0.000015 0.056212 -0.632383 6.483864 -2.883100 0.000001 -0.000002 0.000006 -0.000010 -0.000010 -2.392693 -0.000004 0.000002 0.000000 0.000000 -0.000000 -2.464802 -1.573931 2.681874 -10.328014 -1.313898 -8.957167 -3.229764 -1.864707 1.864730 5.929335 0.659282 -8.093402 -2.652538 -1.531444 1.531440 0.000006 -0.000004 -0.000005 -1.954606 -1.128496 1.128506 -0.000003 0.000003 0.000001 8.207799 -6.751681 -1.599598 -31.179250 10.810064 -1.161028 -0.000002 -44.370506 0.284601 36.528606 -0.342458 -1.277089 -0.000000 -44.427891 -2.982202 -1.456533 2.394074 0.814305 -0.000000 -8.728696 10.710601 -6.859405 -0.042577 0.024929 0.000002 -0.000698 9.278100 0.000000 0.000000 -0.000000 -8.207800 -6.751681 -1.599599 -45.855698 -3.686671 -8.762854 0.000000 -44.370495 0.286191 62.648927 1.151379 2.163720 -0.000002 -44.427696 -2.983803 11.231823 -15.234807 5.743076 -0.000000 -8.728695 10.710599 -0.019887 0.001431 -0.004407 0.000001 -0.000695 9.278096 -0.000002 -0.000000 0.000000 
-0.371552 142.207947 -0.766133 -5.542936 17.661017 6.758729 -0.000001 10.181595 0.131499 0.156068 -0.760406 -1.003142 -0.000000 10.083509 -1.000799 0.313266 -1.370195 -1.299821 -0.000001 9.099997 -1.373398 0.313265 -1.370199 -1.299821 -0.000000 16.671717 -2.516201 7.714460 -2.164492 0.197470 -0.000001 9.617889 1.685000 8.255374 -11.438073 -2.203084 -0.000000 17.815201 2.585002 -0.000000 0.000000 -0.000000 3.067600 6.409500 9.283606 -0.000000 0.000000 -0.000000 -3.067601 6.409500 9.283504 -0.000000 0.000000 -0.000000 4.570402 10.946014 -2.627999 0.383876 0.241292 -3.338421 10.592402 -0.524561 -2.232100 -1.866035 36.648302 -6.876128 27.841499 0.000036 0.000005 13.392025 -80.410096 13.211498 28.328800 0.000002 0.000002 41.143683 12.543742 28.640592 2.466111 -1.576214 2.681684 -9.327296 5.317540 9.810489 3.229817 -1.864706 1.864716 4.331894 -1.353692 9.862607 2.652611 -1.531510 1.531479 0.000002 0.000000 -0.000000 1.954597 -1.128497 1.128493 0.000000 -0.000000 0.000000 9.109308 -0.518112 2.259859 -6.697126 -2.459056 10.394013 3.676396 -0.000006 -0.000001 0.518800 0.852055 -8.045117 2.883115 -0.000011 0.000008 -0.000004 0.000003 -0.000008 2.392700 0.000014 -0.000006 -0.000001 0.000001 -0.000003 9.533406 0.000008 -0.000007 -0.788166 7.789213 6.144126 3.698193 -0.000003 0.000000 0.007177 -0.486138 -13.943968 2.950906 0.000020 -0.000003 0.000011 -0.000001 0.000009 2.833903 0.000012 0.000001 0.000001 -0.000000 -0.000001 9.104512 -0.043068 -1.865128 0.219873 16.598724 8.448371 3.153982 -0.000007 0.000002 -0.492769 -0.918220 -22.349241 2.937691 0.000020 0.000005 0.000002 0.000001 -0.000000 2.647488 0.000002 0.000006 0.000002 -0.000000 0.000001 8.077802 -0.486968 -3.806326 6.313547 25.496248 -2.313273 3.600012 0.000010 -0.000001 -0.705287 -2.871251 -16.946181 2.114210 -0.000011 -0.000000 -0.000001 -0.000000 -0.000002 1.975701 0.000019 0.000002 0.000001 -0.000000 -0.000000 -4.570000 10.946217 -2.628000 0.570972 2.998517 5.279500 -10.592801 -0.524809 -2.232100 -1.665490 -1.563064 28.844493 -27.841511 0.000002 0.000000 4.001744 59.456530 -3.447925 -28.328793 0.000031 -0.000005 -13.998304 -24.714958 -27.701407 -8.076703 -0.486705 -3.806226 2.026093 -27.178293 -1.280413 -3.599998 -0.000015 -0.000010 -0.246045 1.881855 18.253105 -2.114217 -0.000000 -0.000007 -0.000000 -0.000002 0.000005 -1.975704 -0.000003 -0.000010 -0.000002 0.000001 -0.000002 -9.103595 -0.043034 -1.865113 -1.561231 -16.758363 -9.692848 -3.154001 -0.000007 0.000001 -0.264683 0.407808 23.924964 -2.937696 0.000001 0.000002 -0.000001 -0.000001 -0.000001 -2.647494 -0.000000 -0.000007 -0.000000 -0.000000 0.000001 -9.532502 0.000023 -0.000004 0.041810 -7.435046 -5.272611 -3.698200 -0.000007 -0.000001 -0.133737 0.658996 13.512123 -2.950900 -0.000019 -0.000004 -0.000003 -0.000002 0.000001 -2.833898 -0.000029 -0.000001 0.000001 0.000002 0.000002 -9.108296 -0.517850 2.259854 -5.103962 2.286771 -8.562045 -3.676403 -0.000006 0.000013 0.056182 -0.632367 6.483869 -2.883094 0.000027 0.000004 0.000007 -0.000011 -0.000009 -2.392685 0.000000 -0.000004 0.000000 -0.000001 0.000000 -2.464799 -1.573931 2.681863 -10.328035 -1.313894 -8.957165 -3.229789 -1.864691 1.864719 5.929321 0.659281 -8.093385 -2.652544 -1.531440 1.531436 0.000004 -0.000006 -0.000005 -1.954622 -1.128512 1.128483 -0.000000 0.000002 0.000001 8.207799 -6.751714 -1.599599 -31.203180 10.793230 -1.144311 0.000002 -44.370502 0.284597 36.537031 -0.342645 -1.277376 0.000000 -44.427895 -2.982200 -1.455024 2.409113 0.807453 -0.000000 -8.728712 10.710599 -6.859757 -0.042587 0.024931 -0.000000 -0.000703 9.278099 -0.000000 0.000003 -0.000000 -8.207801 -6.751709 -1.599597 -45.871772 -3.710444 -8.751564 -0.000000 -44.370502 0.286207 62.645163 1.151522 2.163663 -0.000001 -44.427689 -2.983796 11.230971 -15.234387 5.733701 -0.000001 -8.728698 10.710595 0.000169 0.001224 -0.004054 0.000001 -0.000699 9.278098 -0.000000 0.000000 -0.000000 
